<svg xmlns="http://www.w3.org/2000/svg" width="24.152" height="22" viewBox="0 0 24.152 22">
  <path id="Freepik_discuss-issue" d="M18.479,21.36a2,2,0,0,1-.922,1.5c-.147.124-.421.349-.421.434a.59.59,0,0,1-.594.595h0a.591.591,0,0,1-.6-.585,1.793,1.793,0,0,1,.848-1.356c.3-.251.494-.427.494-.588a.592.592,0,0,0-1.185,0,.6.6,0,0,1-1.2,0,1.79,1.79,0,0,1,3.58,0Zm-1.925,3.084a.588.588,0,0,0-.586.6v0a.586.586,0,0,0,.586.6.6.6,0,0,0,0-1.2ZM4.484,28.616a.6.6,0,0,0,0,1.2h.05a.6.6,0,0,0,0-1.2Zm2.081,0a.6.6,0,0,0,0,1.2h.05a.6.6,0,0,0,0-1.2Zm17.587-9.564v6.74a2.879,2.879,0,0,1-2.875,2.891H13.511c-.152,0-.277,0-.381,0s-.233,0-.281,0c-.05.033-.173.146-.291.255l-.157.143-2.2,2a.613.613,0,0,1-1.021-.442V24.291H2.909a1.716,1.716,0,0,0-1.711,1.7v6.74A1.689,1.689,0,0,0,2.909,34.4h8.674a.6.6,0,0,1,.4.169l1.79,1.65V30.533a.6.6,0,1,1,1.2,0v7.049a.59.59,0,0,1-.353.545.574.574,0,0,1-.237.048.605.605,0,0,1-.4-.163L11.351,35.6H2.909A2.888,2.888,0,0,1,0,32.733v-6.74a2.915,2.915,0,0,1,2.909-2.9H9.182V19.052A2.9,2.9,0,0,1,12.1,16.174h9.176A2.867,2.867,0,0,1,24.152,19.052Zm-1.2,0a1.668,1.668,0,0,0-1.678-1.68H12.1a1.706,1.706,0,0,0-1.721,1.68V29.283l1.2-1.088c.056-.051.118-.1.164-.14a1.512,1.512,0,0,1,1.408-.573c.1,0,.214,0,.356,0h7.766a1.68,1.68,0,0,0,1.678-1.693v-6.74Z" transform="translate(0 -16.174)" fill="#f37021"/>
</svg>
